<svg width="50" height="50" viewBox="0 0 50 50" fill="none" xmlns="http://www.w3.org/2000/svg">
<path d="M8.5 43C9.65293 41.7088 15.0526 35.7667 16.635 35.7667H33.366C35.659 35.7667 40.3399 40.6922 41.5 42.4285M49 25C49 38.2548 38.2548 49 25 49C11.7452 49 1 38.2548 1 25C1 11.7452 11.7452 1 25 1C38.2548 1 49 11.7452 49 25ZM33.5971 16.8199C33.5971 12.2411 29.7318 8.5 25.0007 8.5C20.2698 8.5 16.4043 12.2411 16.4043 16.8199C16.4043 21.3987 20.2698 25.1398 25.0007 25.1398C29.7317 25.1398 33.5971 21.3987 33.5971 16.8199Z" stroke="#FCA17D" stroke-opacity="0.7" stroke-width="2"/>
</svg>
